HIERARCHY
ROOT Hips
{
 OFFSET 0.000000 0.000000 0.000000
 CHANNELS 6 Xposition Yposition Zposition Yrotation Xrotation Zrotation
 JOINT Chest
 {
  OFFSET 0.000000 9.585900 0.002600
  CHANNELS 3 Yrotation Xrotation Zrotation
  JOINT Chest2
  {
   OFFSET 0.000000 9.601200 -0.005300
   CHANNELS 3 Yrotation Xrotation Zrotation
   JOINT Chest3
   {
    OFFSET 0.000000 9.561800 0.000000
    CHANNELS 3 Yrotation Xrotation Zrotation
    JOINT Chest4
    {
     OFFSET 0.000000 9.552100 0.000000
     CHANNELS 3 Yrotation Xrotation Zrotation
     JOINT Neck
     {
      OFFSET 0.000000 14.453000 0.000000
      CHANNELS 3 Yrotation Xrotation Zrotation
      JOINT Head
      {
       OFFSET 0.000000 8.936500 -0.011300
       CHANNELS 3 Yrotation Xrotation Zrotation
       End Site
       {
        OFFSET 0.000000 17.073600 -0.006000
       }
      }
     }
     JOINT RightCollar
     {
      OFFSET -2.921100 9.558500 0.000000
      CHANNELS 3 Yrotation Xrotation Zrotation
      JOINT RightShoulder
      {
       OFFSET -13.519700 0.000000 0.000000
       CHANNELS 3 Yrotation Xrotation Zrotation
       JOINT RightElbow
       {
        OFFSET 0.000000 -29.696600 0.000000
        CHANNELS 3 Yrotation Xrotation Zrotation
        JOINT RightWrist
        {
         OFFSET 0.000000 -24.004700 0.000000
         CHANNELS 3 Yrotation Xrotation Zrotation
         End Site
         {
          OFFSET 0.000000 -17.728500 0.000000
         }
        }
       }
      }
     }
     JOINT LeftCollar
     {
      OFFSET 2.921100 9.558500 0.000000
      CHANNELS 3 Yrotation Xrotation Zrotation
      JOINT LeftShoulder
      {
       OFFSET 13.519700 0.000000 0.000000
       CHANNELS 3 Yrotation Xrotation Zrotation
       JOINT LeftElbow
       {
        OFFSET 0.000000 -29.696600 0.000000
        CHANNELS 3 Yrotation Xrotation Zrotation
        JOINT LeftWrist
        {
         OFFSET 0.000000 -24.004700 0.000000
         CHANNELS 3 Yrotation Xrotation Zrotation
         End Site
         {
          OFFSET 0.000000 -17.728500 0.000000
         }
        }
       }
      }
     }
    }
   }
  }
 }
 JOINT RightHip
 {
  OFFSET -7.771700 -0.012900 -0.001300
  CHANNELS 3 Yrotation Xrotation Zrotation
  JOINT RightKnee
  {
   OFFSET 0.000000 -40.869800 0.001200
   CHANNELS 3 Yrotation Xrotation Zrotation
   JOINT RightAnkle
   {
    OFFSET 0.000000 -39.717900 0.002100
    CHANNELS 3 Yrotation Xrotation Zrotation
    JOINT RightToe
    {
     OFFSET 0.000000 -4.965400 11.033500
     CHANNELS 3 Yrotation Xrotation Zrotation
     End Site
     {
      OFFSET 0.000000 -1.423100 5.872300
     }
    }
   }
  }
 }
 JOINT LeftHip
 {
  OFFSET 7.771700 -0.012900 -0.001300
  CHANNELS 3 Yrotation Xrotation Zrotation
  JOINT LeftKnee
  {
   OFFSET 0.000000 -40.869800 0.001200
   CHANNELS 3 Yrotation Xrotation Zrotation
   JOINT LeftAnkle
   {
    OFFSET 0.000000 -39.717900 0.002100
    CHANNELS 3 Yrotation Xrotation Zrotation
    JOINT LeftToe
    {
     OFFSET 0.000000 -4.965400 11.033500
     CHANNELS 3 Yrotation Xrotation Zrotation
     End Site
     {
      OFFSET 0.000000 -1.423100 5.872300
     }
    }
   }
  }
 }
}
MOTION
Frames: 11
Frame Time: 0.008333
-17.736773 58.313703 29.831202 167.693651 -45.208653 -1.205234 6.250288 27.824481 4.488476 0.967758 5.254627 0.424665 1.569849 8.241922 0.718517 4.813450 22.725807 2.659416 -2.288287 10.793291 4.269154 -6.301593 -15.419576 9.238370 5.921583 7.164357 0.561841 23.549027 -39.738677 -21.549294 48.691117 -47.941311 -31.124574 10.108464 4.356246 -25.259963 -10.071583 2.181929 -2.523620 -14.810338 -32.728137 11.027554 -70.133097 -52.888656 46.414579 -28.981327 3.267305 18.688945 8.584141 -26.753896 3.605246 -6.129077 68.513511 0.504865 1.545213 3.632958 -4.172112 -0.011453 0.168987 -0.006329 -3.825348 -28.571399 3.347695 29.520129 72.251903 25.405278 -23.230229 0.111867 0.141287 -0.314128 -0.940386 -0.145355
-17.736888 58.313946 29.831212 167.688684 -45.207912 -1.200380 6.272448 27.820929 4.501332 0.971205 5.253837 0.425382 1.574464 8.239358 0.718824 4.838804 22.715109 2.663303 -2.313772 10.714728 4.244964 -6.330866 -15.569530 9.201570 5.870884 7.185887 0.570320 23.554772 -39.758586 -21.509136 48.686907 -47.911575 -31.144125 10.108513 4.345839 -25.246806 -10.119678 2.204852 -2.496442 -14.806514 -32.735796 11.017982 -70.113446 -52.891616 46.400696 -28.949635 3.275081 18.698670 8.589353 -26.754988 3.602792 -6.137273 68.515159 0.498653 1.545809 3.630907 -4.171754 -0.011995 0.164452 -0.006348 -3.826048 -28.571562 3.348648 29.550743 72.245747 25.432829 -23.259263 0.112352 0.140637 -0.310171 -0.940196 -0.147056
-17.738488 58.313363 29.831067 167.682638 -45.199316 -1.186980 6.289068 27.808172 4.502185 0.975728 5.254090 0.427240 1.579549 8.235313 0.719267 4.854154 22.706214 2.666456 -2.329723 10.637095 4.218300 -6.358567 -15.714064 9.165452 5.829462 7.208648 0.576749 23.558325 -39.778626 -21.473932 48.674605 -47.882010 -31.161377 10.111552 4.338005 -25.236269 -10.158487 2.219488 -2.480649 -14.815806 -32.726441 11.030166 -70.029977 -52.914860 46.326181 -28.941381 3.269250 18.734929 8.598454 -26.764324 3.588667 -6.133011 68.520603 0.503736 1.546206 3.625587 -4.170984 -0.011519 0.165484 -0.007201 -3.819421 -28.580064 3.340368 29.557897 72.242669 25.434055 -23.268780 0.115737 0.147592 -0.319532 -0.940667 -0.150658
-17.738871 58.313458 29.829944 167.675271 -45.194938 -1.179855 6.308620 27.796627 4.507975 0.982059 5.254260 0.431369 1.584779 8.231851 0.720075 4.867217 22.695461 2.667245 -2.344439 10.562547 4.192959 -6.384202 -15.853067 9.131051 5.773364 7.241391 0.573692 23.571978 -39.803300 -21.450595 48.655230 -47.864886 -31.169345 10.106412 4.324571 -25.223404 -10.195322 2.230912 -2.455016 -14.824756 -32.718122 11.034160 -69.996810 -52.928784 46.308396 -28.862713 3.290934 18.757714 8.602439 -26.769295 3.584093 -6.121157 68.524586 0.515874 1.545661 3.622971 -4.172967 -0.011408 0.164210 -0.006998 -3.815386 -28.584042 3.339279 29.563503 72.243732 25.435287 -23.268393 0.115426 0.154561 -0.324906 -0.942019 -0.151717
-17.739495 58.314259 29.827577 167.660982 -45.194493 -1.166189 6.332885 27.789058 4.511315 0.984246 5.250143 0.432339 1.607731 8.215513 0.719208 4.867355 22.697122 2.674448 -2.357806 10.492097 4.169599 -6.407692 -15.984515 9.099493 5.726075 7.271188 0.571752 23.580913 -39.837628 -21.388427 48.605101 -47.784146 -31.167691 10.109854 4.281978 -25.207820 -10.227588 2.252657 -2.438955 -14.839556 -32.717313 11.048297 -69.928813 -52.950077 46.245930 -28.846558 3.297483 18.779012 8.611335 -26.770168 3.578935 -6.108582 68.529861 0.527408 1.545073 3.619614 -4.174524 -0.010437 0.162016 -0.006487 -3.814737 -28.580379 3.341796 29.558573 72.244284 25.417757 -23.269791 0.112730 0.160964 -0.328038 -0.940785 -0.153408
-17.739239 58.315284 29.824784 167.649447 -45.193560 -1.160215 6.355304 27.782720 4.520074 0.989807 5.244557 0.431367 1.618377 8.202981 0.718685 4.876621 22.690191 2.678734 -2.369387 10.426696 4.147339 -6.427502 -16.106576 9.068750 5.689244 7.303214 0.577591 23.612713 -39.882065 -21.301066 48.603024 -47.670758 -31.205332 10.074971 4.286822 -25.217246 -10.257090 2.278546 -2.423786 -14.865973 -32.713325 11.082743 -69.782929 -53.007641 46.101510 -28.855075 3.309313 18.826142 8.617258 -26.770930 3.579945 -6.096563 68.533175 0.539714 1.546466 3.615103 -4.177699 -0.011667 0.161552 -0.004605 -3.811041 -28.579403 3.345767 29.520669 72.252850 25.379460 -23.259691 0.109609 0.166337 -0.337253 -0.941936 -0.156452
-17.740036 58.314872 29.822940 167.641948 -45.177419 -1.152795 6.362896 27.765243 4.518118 1.004829 5.234963 0.431435 1.621831 8.193973 0.717224 4.891186 22.678987 2.682008 -2.379131 10.365896 4.125796 -6.443451 -16.220206 9.038031 5.648269 7.331017 0.581698 23.641095 -39.916926 -21.229719 48.607662 -47.589431 -31.233898 10.065486 4.290045 -25.221645 -10.294014 2.293692 -2.392865 -14.854577 -32.702584 11.074076 -69.690840 -53.049916 46.006443 -28.841614 3.327386 18.852808 8.624364 -26.788100 3.572422 -6.079005 68.538977 0.558096 1.544241 3.609970 -4.179811 -0.013638 0.161507 -0.003636 -3.808661 -28.594484 3.344867 29.520721 72.254581 25.377002 -23.255800 0.105862 0.169076 -0.342558 -0.940252 -0.157861
-17.740408 58.315817 29.819600 167.640052 -45.169472 -1.150035 6.380159 27.750489 4.521204 1.021858 5.219772 0.430743 1.612126 8.195017 0.720048 4.898862 22.675366 2.687173 -2.380886 10.302603 4.101162 -6.455157 -16.326072 9.008947 5.613678 7.350413 0.583905 23.672245 -39.946025 -21.173702 48.589571 -47.504118 -31.244374 10.064886 4.267959 -25.224989 -10.324731 2.308035 -2.375311 -14.848516 -32.697457 11.074066 -69.574265 -53.098930 45.883505 -28.824739 3.356080 18.884758 8.626200 -26.794981 3.569484 -6.067563 68.544020 0.568070 1.541890 3.603474 -4.180028 -0.010550 0.160996 -0.003596 -3.812807 -28.598699 3.347181 29.520776 72.253883 25.370740 -23.254520 0.102215 0.169187 -0.333642 -0.938017 -0.155225
-17.740581 58.316851 29.816078 167.639943 -45.158901 -1.149110 6.396780 27.731237 4.525973 1.010364 5.224242 0.431755 1.626890 8.178435 0.716456 4.891893 22.686874 2.695171 -2.368913 10.229985 4.068792 -6.461342 -16.421740 8.981115 5.577960 7.344458 0.567038 23.712696 -39.966622 -21.106350 48.559116 -47.414946 -31.251079 10.055977 4.247418 -25.226368 -10.342351 2.303014 -2.365714 -14.835610 -32.687938 11.066803 -69.425947 -53.156770 45.727825 -28.805829 3.391371 18.925078 8.625330 -26.803226 3.567469 -6.061640 68.548188 0.571611 1.543463 3.593658 -4.180914 -0.010761 0.163182 -0.002865 -3.818798 -28.607241 3.347935 29.529942 72.254958 25.372694 -23.235820 0.104732 0.171326 -0.293509 -0.941838 -0.153359
-17.740310 58.318006 29.812435 167.636569 -45.146232 -1.147653 6.414429 27.710907 4.530350 1.012392 5.219120 0.431390 1.628162 8.168244 0.716467 4.905361 22.680032 2.695669 -2.372916 10.180884 4.052304 -6.464582 -16.504939 8.955145 5.550646 7.366566 0.586010 23.743324 -39.991258 -21.066345 48.529890 -47.329626 -31.251763 10.021531 4.241165 -25.237052 -10.377391 2.317667 -2.345784 -14.831264 -32.675675 11.068223 -69.225548 -53.233757 45.531094 -28.789106 3.425946 18.971344 8.626685 -26.814375 3.567823 -6.060842 68.552289 0.569945 1.547127 3.586124 -4.185069 -0.011169 0.163612 0.000818 -3.818551 -28.616452 3.354946 29.527534 72.254820 25.366563 -23.247007 0.104102 0.171802 -0.334415 -0.941503 -0.149799
-17.738559 58.319863 29.808353 167.625939 -45.136826 -1.148314 6.438052 27.693334 4.544483 1.014318 5.212850 0.430384 1.630148 8.157107 0.714023 4.942573 22.633318 2.686032 -2.396319 10.176172 4.056113 -6.467128 -16.576361 8.931864 5.495475 7.427206 0.614307 23.768783 -40.022694 -21.014007 48.503037 -47.248455 -31.244834 10.014887 4.219416 -25.244173 -10.433018 2.374298 -2.313072 -14.826796 -32.662517 11.074122 -68.986216 -53.332088 45.301351 -28.775315 3.456329 19.021767 8.629111 -26.822489 3.578398 -6.064555 68.553715 0.563046 1.552099 3.580924 -4.186669 -0.012197 0.163238 0.001965 -3.811932 -28.622616 3.364213 29.534122 72.257307 25.378206 -23.251578 0.099366 0.171539 -0.306745 -0.942108 -0.147940
